HIERARCHY
ROOT Hips
{
    OFFSET   0.000000   0.000000   0.000000
    CHANNELS 6 Xposition Yposition Zposition Zrotation Xrotation Yrotation
    JOINT Chest
    {
        OFFSET   0.000000   8.007230   0.000000
        CHANNELS 3 Zrotation Xrotation Yrotation
        JOINT Chest2
        {
            OFFSET   0.000000  22.077100   0.000000
            CHANNELS 3 Zrotation Xrotation Yrotation
            JOINT Neck
            {
                OFFSET   0.000000  23.254800  -0.000021
                CHANNELS 3 Zrotation Xrotation Yrotation
                JOINT Head
                {
                    OFFSET   0.000000  14.370000   1.956610
                    CHANNELS 3 Zrotation Xrotation Yrotation
                    End Site
                    {
                        OFFSET   0.000000  19.566000   0.000000
                    }
                }
            }
            JOINT LeftCollar
            {
                OFFSET   3.911900  19.017000  -0.467063
                CHANNELS 3 Zrotation Xrotation Yrotation
                JOINT LeftShoulder
                {
                    OFFSET  10.383700   0.000000   0.000000
                    CHANNELS 3 Zrotation Xrotation Yrotation
                    JOINT LeftElbow
                    {
                        OFFSET  26.662100   0.001529   0.000325
                        CHANNELS 3 Zrotation Xrotation Yrotation
                        JOINT LeftWrist
                        {
                            OFFSET  28.869000  -0.000011  -0.000096
                            CHANNELS 3 Zrotation Xrotation Yrotation
                            JOINT LeftFinger0
                            {
                                OFFSET   2.044650  -2.323460   3.252850
                                CHANNELS 3 Zrotation Xrotation Yrotation
                                JOINT LeftFinger01
                                {
                                    OFFSET   3.088130   0.000000   0.000000
                                    CHANNELS 3 Zrotation Xrotation Yrotation
                                    JOINT LeftFinger02
                                    {
                                        OFFSET   2.639460   0.000000   0.000000
                                        CHANNELS 3 Zrotation Xrotation Yrotation
                                        End Site
                                        {
                                            OFFSET   2.582190   0.000000   0.000000
                                        }
                                    }
                                }
                            }
                            JOINT LeftFinger1
                            {
                                OFFSET   8.364480   0.000000   3.252850
                                CHANNELS 3 Zrotation Xrotation Yrotation
                                JOINT LeftFinger11
                                {
                                    OFFSET   4.646930   0.000000   0.000000
                                    CHANNELS 3 Zrotation Xrotation Yrotation
                                    JOINT LeftFinger12
                                    {
                                        OFFSET   2.323460   0.000000   0.000000
                                        CHANNELS 3 Zrotation Xrotation Yrotation
                                        End Site
                                        {
                                            OFFSET   2.273050   0.000000   0.000000
                                        }
                                    }
                                }
                            }
                            JOINT LeftFinger2
                            {
                                OFFSET   8.364480   0.000016   1.078090
                                CHANNELS 3 Zrotation Xrotation Yrotation
                                JOINT LeftFinger21
                                {
                                    OFFSET   5.111620   0.000000   0.000000
                                    CHANNELS 3 Zrotation Xrotation Yrotation
                                    JOINT LeftFinger22
                                    {
                                        OFFSET   2.788160   0.000017   0.000000
                                        CHANNELS 3 Zrotation Xrotation Yrotation
                                        End Site
                                        {
                                            OFFSET   2.727660   0.000000   0.000000
                                        }
                                    }
                                }
                            }
                            JOINT LeftFinger3
                            {
                                OFFSET   7.899780   0.000015  -1.078090
                                CHANNELS 3 Zrotation Xrotation Yrotation
                                JOINT LeftFinger31
                                {
                                    OFFSET   4.646920   0.000000   0.000000
                                    CHANNELS 3 Zrotation Xrotation Yrotation
                                    JOINT LeftFinger32
                                    {
                                        OFFSET   2.323470   0.000000   0.000000
                                        CHANNELS 3 Zrotation Xrotation Yrotation
                                        End Site
                                        {
                                            OFFSET   2.273050   0.000000   0.000000
                                        }
                                    }
                                }
                            }
                            JOINT LeftFinger4
                            {
                                OFFSET   7.435090   0.000000  -3.252850
                                CHANNELS 3 Zrotation Xrotation Yrotation
                                JOINT LeftFinger41
                                {
                                    OFFSET   3.717550   0.000000   0.000000
                                    CHANNELS 3 Zrotation Xrotation Yrotation
                                    JOINT LeftFinger42
                                    {
                                        OFFSET   1.858760   0.000000   0.000000
                                        CHANNELS 3 Zrotation Xrotation Yrotation
                                        End Site
                                        {
                                            OFFSET   1.818440   0.000000   0.000000
                                        }
                                    }
                                }
                            }
                        }
                    }
                }
            }
            JOINT RightCollar
            {
                OFFSET  -3.911900  19.017000  -0.467062
                CHANNELS 3 Zrotation Xrotation Yrotation
                JOINT RightShoulder
                {
                    OFFSET -10.383700   0.000015   0.000000
                    CHANNELS 3 Zrotation Xrotation Yrotation
                    JOINT RightElbow
                    {
                        OFFSET -26.662100   0.001341   0.000385
                        CHANNELS 3 Zrotation Xrotation Yrotation
                        JOINT RightWrist
                        {
                            OFFSET -28.869000   0.000025  -0.000080
                            CHANNELS 3 Zrotation Xrotation Yrotation
                            JOINT RightFinger0
                            {
                                OFFSET  -2.044650  -2.323490   3.252850
                                CHANNELS 3 Zrotation Xrotation Yrotation
                                JOINT RightFinger01
                                {
                                    OFFSET  -3.088130   0.000000   0.000000
                                    CHANNELS 3 Zrotation Xrotation Yrotation
                                    JOINT RightFinger02
                                    {
                                        OFFSET  -2.639460   0.000000   0.000000
                                        CHANNELS 3 Zrotation Xrotation Yrotation
                                        End Site
                                        {
                                            OFFSET  -2.582190   0.000000   0.000000
                                        }
                                    }
                                }
                            }
                            JOINT RightFinger1
                            {
                                OFFSET  -8.364480   0.000000   3.252850
                                CHANNELS 3 Zrotation Xrotation Yrotation
                                JOINT RightFinger11
                                {
                                    OFFSET  -4.646930   0.000000   0.000000
                                    CHANNELS 3 Zrotation Xrotation Yrotation
                                    JOINT RightFinger12
                                    {
                                        OFFSET  -2.323470   0.000000   0.000000
                                        CHANNELS 3 Zrotation Xrotation Yrotation
                                        End Site
                                        {
                                            OFFSET  -2.273050   0.000000   0.000000
                                        }
                                    }
                                }
                            }
                            JOINT RightFinger2
                            {
                                OFFSET  -8.364480   0.000000   1.078090
                                CHANNELS 3 Zrotation Xrotation Yrotation
                                JOINT RightFinger21
                                {
                                    OFFSET  -5.111610   0.000000   0.000000
                                    CHANNELS 3 Zrotation Xrotation Yrotation
                                    JOINT RightFinger22
                                    {
                                        OFFSET  -2.788160   0.000000   0.000000
                                        CHANNELS 3 Zrotation Xrotation Yrotation
                                        End Site
                                        {
                                            OFFSET  -2.727660   0.000000   0.000000
                                        }
                                    }
                                }
                            }
                            JOINT RightFinger3
                            {
                                OFFSET  -7.899780   0.000000  -1.078090
                                CHANNELS 3 Zrotation Xrotation Yrotation
                                JOINT RightFinger31
                                {
                                    OFFSET  -4.646920   0.000000   0.000000
                                    CHANNELS 3 Zrotation Xrotation Yrotation
                                    JOINT RightFinger32
                                    {
                                        OFFSET  -2.323470   0.000000   0.000000
                                        CHANNELS 3 Zrotation Xrotation Yrotation
                                        End Site
                                        {
                                            OFFSET  -2.273050   0.000000   0.000000
                                        }
                                    }
                                }
                            }
                            JOINT RightFinger4
                            {
                                OFFSET  -7.435090   0.000000  -3.252850
                                CHANNELS 3 Zrotation Xrotation Yrotation
                                JOINT RightFinger41
                                {
                                    OFFSET  -3.717550   0.000000   0.000000
                                    CHANNELS 3 Zrotation Xrotation Yrotation
                                    JOINT RightFinger42
                                    {
                                        OFFSET  -1.858770   0.000000   0.000000
                                        CHANNELS 3 Zrotation Xrotation Yrotation
                                        End Site
                                        {
                                            OFFSET  -1.818440   0.000000   0.000000
                                        }
                                    }
                                }
                            }
                        }
                    }
                }
            }
        }
    }
    JOINT LeftHip
    {
        OFFSET   9.783010   0.000000   0.000000
        CHANNELS 3 Zrotation Xrotation Yrotation
        JOINT LeftKnee
        {
            OFFSET   0.000070 -41.789100   0.000028
            CHANNELS 3 Zrotation Xrotation Yrotation
            JOINT LeftAnkle
            {
                OFFSET   0.000087 -41.133200  -0.000100
                CHANNELS 3 Zrotation Xrotation Yrotation
                JOINT LeftToe
                {
                    OFFSET   0.000000  -6.358960  14.674500
                    CHANNELS 3 Zrotation Xrotation Yrotation
                    End Site
                    {
                        OFFSET   0.000000   0.000000   3.913200
                    }
                }
            }
        }
    }
    JOINT RightHip
    {
        OFFSET  -9.783020   0.000000   0.000000
        CHANNELS 3 Zrotation Xrotation Yrotation
        JOINT RightKnee
        {
            OFFSET   0.000044 -41.789100  -0.000870
            CHANNELS 3 Zrotation Xrotation Yrotation
            JOINT RightAnkle
            {
                OFFSET  -0.000090 -41.133200  -0.000245
                CHANNELS 3 Zrotation Xrotation Yrotation
                JOINT RightToe
                {
                    OFFSET   0.000000  -6.358960  14.674500
                    CHANNELS 3 Zrotation Xrotation Yrotation
                    End Site
                    {
                        OFFSET   0.000000   0.000000   3.913200
                    }
                }
            }
        }
    }
}
MOTION
Frames: 4
Frame Time:   0.016667
  3.409950  90.031600  -0.078961  -1.873830  -7.150330   1.571560  -0.077310   5.215170   0.145253  -0.169007  10.430200   0.299475  11.096200  -6.195090   1.212350  18.738800 -11.155900  -7.127130   3.514900  -6.778160  -6.074200 -36.664600 -25.396800 -86.934200  13.516500 -24.235900 -131.696000  11.225000  -4.269490   0.932725  36.025400  42.630200 -74.135700 -44.003500   0.001889   0.002045 -19.636300  -0.004208   0.000925 -72.393100   7.642030  -2.416230 -59.363000   0.001181  -0.001954 -44.522300   0.000816   0.001824 -64.212100   2.583270  -1.247310 -64.240300   0.000660   0.010248 -48.180200  -0.002794  -0.000929 -49.447300   2.050630  -1.753030 -54.323000  -0.000686  -0.001440 -39.678100   0.000920  -0.001038 -48.270000  -3.856690   3.433840 -72.579300   0.001693   0.000999 -48.337800   0.005871  -0.003412  10.582100   0.046278   6.426410  67.726300  14.568600   1.067850   1.013870  -4.839260  18.503000 -22.278600 -18.578300   0.205721 -36.649100  27.814900  57.397700  32.297000   0.012782  -0.008021  11.148500   0.014085   0.007968  40.232200   2.657110   3.136400  32.976800   0.041070   0.015029  23.201200   0.030476   0.006134  29.630800  -3.351490  -5.868400  44.704000   0.037037   0.037992  29.772900   0.037938  -0.012045  29.451900  -4.965130  -8.721480  44.745700  -0.007485  -0.010946  29.800600  -0.009927   0.001302  43.030100  -6.880040  -7.313140  65.205400  -0.006237  -0.002476  43.426800  -0.002904   0.004725   0.302353   8.824530   1.155100  -0.262907  -0.019737   6.524260  -4.043440  -4.052920   3.868730   0.000000   0.000000   0.000000   1.786950   6.655080  -7.324350  -2.617280   6.639430  -9.593870  -7.076360  -1.707400   0.856416  -0.000000   0.000000   0.000000
  3.431140  90.031100  -0.079397  -1.928740  -7.176620   1.309190  -0.055572   5.218830   0.090889  -0.120240  10.437600   0.188062  11.122200  -6.190160   1.214630  18.781400 -11.141400  -7.277650   3.554080  -6.688160  -5.926450 -36.747100 -25.370300 -86.981000  13.495200 -24.262700 -131.728000  11.241700  -4.668980   1.020890  36.527700  43.626000 -75.179400 -44.190600   0.001962   0.002033 -19.809500  -0.004201   0.000878 -72.266000   7.672470  -2.441110 -59.261500   0.001152  -0.001989 -44.446200   0.000835   0.001840 -64.220500   2.581390  -1.245900 -64.248700   0.000802   0.010477 -48.186500  -0.002817  -0.000880 -49.903000   2.003230  -1.685340 -54.296400  -0.000609  -0.001365 -39.767800   0.000872  -0.000981 -48.586900  -3.976650   3.500120 -73.063000   0.002017   0.001003 -48.659900   0.005860  -0.003411  10.582400   0.052274   6.508210  67.719800  14.563700   1.065360   0.998667  -4.880740  18.447500 -22.266900 -18.591300   0.214129 -36.643700  27.832000  57.442000  32.311400   0.017059  -0.010741  11.154300   0.020012   0.008723  40.259500   2.661330   3.139130  32.999300   0.099858  -0.014212  23.221600   0.062876  -0.020813  29.645500  -3.351470  -5.868190  44.725700   0.071980   0.069630  29.787400   0.072201  -0.020986  29.473200  -4.965250  -8.715890  44.777000  -0.018466  -0.025975  29.821400  -0.028807   0.006334  43.059100  -6.880020  -7.306180  65.248100  -0.006227  -0.002471  43.455200   0.007637  -0.012636   0.299451   8.897990   1.204600  -0.277444  -0.010540   6.588660  -3.988700  -4.141100   4.011120  -0.000000   0.000000  -0.000000   1.835600   6.586930  -7.294350  -2.714510   6.766630  -9.437170  -7.047520  -1.741250   0.924026   0.000000   0.000000   0.000000
  3.447960  90.030800  -0.081987  -1.982350  -7.208590   1.057420  -0.036603   5.227550   0.043066  -0.077650  10.455100   0.090068  11.146100  -6.185240   1.216390  18.820400 -11.125700  -7.473800   3.585790  -6.595660  -5.782950 -36.865500 -25.348100 -87.053500  13.476700 -24.293900 -131.750000  11.261600  -5.068900   1.103100  36.988400  44.520500 -76.156100 -44.393500   0.002025   0.002022 -20.001600  -0.004198   0.000829 -72.222200   7.682890  -2.448550 -59.226700   0.001118  -0.002019 -44.420000   0.000852   0.001854 -64.244300   2.576210  -1.241980 -64.272500   0.000941   0.010705 -48.204400  -0.002840  -0.000832 -50.330400   1.971210  -1.634030 -54.273800  -0.000538  -0.001297 -39.852500   0.000825  -0.000921 -48.813600  -4.062480   3.547370 -73.409200   0.002328   0.001004 -48.890500   0.005845  -0.003402  10.588400   0.058271   6.562530  67.711400  14.562100   1.064070   0.993187  -4.913940  18.401200 -22.242900 -18.595400   0.234267 -36.639100  27.847000  57.488500  32.319100   0.019178  -0.012088  11.157600   0.023572   0.010178  40.280800   2.669090   3.145120  33.017100   0.140620  -0.061765  23.237700   0.084476  -0.063152  29.656900  -3.351270  -5.866750  44.742600   0.095389   0.090276  29.798700   0.094906  -0.026790  29.491600  -4.965350  -8.712340  44.804400  -0.047268  -0.042811  29.839700  -0.048528   0.021998  43.084300  -6.879950  -7.301870  65.285400  -0.006198  -0.002458  43.480100   0.023245  -0.039090   0.299259   8.986230   1.250860  -0.294109  -0.001346   6.649670  -3.934750  -4.207790   4.149880   0.000000   0.000000   0.000000   1.885920   6.518910  -7.262700  -2.810900   6.903960  -9.288990  -7.020050  -1.780340   0.987281  -0.000000   0.000000  -0.000000
  3.461870  90.030300  -0.087321  -2.035170  -7.254070   0.815250  -0.021436   5.245290   0.019565  -0.045099  10.490600   0.041471  11.165300  -6.185730   1.218650  18.853700 -11.122900  -7.773480   3.613260  -6.529440  -5.685150 -36.930700 -25.320900 -87.119500  13.470100 -24.311200 -131.766000  11.338100  -5.394190   1.176860  37.223600  45.145600 -76.808900 -44.696700   0.002072   0.002049 -20.305300  -0.004195   0.000782 -72.702600   7.564110  -2.346870 -59.611800   0.001075  -0.002043 -44.708800   0.000872   0.001872 -64.457700   2.528290  -1.208920 -64.484700   0.001063   0.010932 -48.363600  -0.002865  -0.000786 -50.531400   1.974160  -1.625860 -54.267900  -0.000468  -0.001243 -39.896700   0.000770  -0.000863 -48.803700  -4.058410   3.545530 -73.394000   0.002616   0.000999 -48.880400   0.005814  -0.003387  10.615500   0.047408   6.560280  67.700400  14.559300   1.062630   0.996673  -4.927040  18.369200 -22.213100 -18.582600   0.264282 -36.645600  27.864900  57.526200  32.319100   0.015907  -0.009986  11.158200   0.023915   0.012029  40.290500   2.677190   3.153560  33.025500   0.139516  -0.099509  23.245300   0.079441  -0.101134  29.661300  -3.350810  -5.862590  44.749200   0.087469   0.081912  29.803100   0.085665  -0.023803  29.500100  -4.965390  -8.712590  44.817100  -0.135210  -0.060157  29.848300  -0.061378   0.059673  43.095400  -6.879820  -7.302240  65.302200   0.004787  -0.001207  43.491400   0.027621  -0.056765   0.293537   9.137630   1.293870  -0.312262  -0.110608   6.719400  -3.873130  -4.210490   4.279210   0.000000   0.000000  -0.000000   1.939570   6.463020  -7.220190  -2.904380   7.047900  -9.156660  -6.994010  -1.827470   1.044270   0.000000   0.000000   0.000000
